<svg xmlns="http://www.w3.org/2000/svg" version="1.1" xmlns:xlink="http://www.w3.org/1999/xlink" xmlns:svgjs="http://svgjs.com/svgjs" width="1000" height="1000"><rect width="1000" height="1000" rx="200" ry="200" fill="#ffffff"></rect><g transform="matrix(0.7843137254901961,0,0,0.7843137254901961,-0.032358206954654634,273.61764705882354)"><svg xmlns="http://www.w3.org/2000/svg" version="1.1" xmlns:xlink="http://www.w3.org/1999/xlink" xmlns:svgjs="http://svgjs.com/svgjs" width="1275" height="577"><svg version="1.1" id="Layer_1" xmlns="http://www.w3.org/2000/svg" xmlns:xlink="http://www.w3.org/1999/xlink" x="0px" y="0px" viewBox="0 0 1275 577" style="enable-background:new 0 0 1275 577;" xml:space="preserve">
<path d="M238.6,174.7v111.3H66V174.7H0v285.6h66.5V342.5H239v117.8h66.4V174.7H238.6z"></path>
<path d="M353,460.3h198.4c61.2,0,99.1-29.9,99.1-80.3c0.1-15.1-4.6-29.8-13.4-42c-8.8-12.2-21.3-21.3-35.6-26
	c12-4.9,22.3-13.2,29.6-24c7.2-10.8,11.1-23.5,11-36.5c0-49.6-35.3-76.7-97.7-76.7H353V460.3z M416.7,289.3v-60h120.9
	c26.6,0,41.8,9.9,41.8,29.8c0,19.8-15.2,30.2-41.8,30.2H416.7z M416.7,341h129.2c25.5,0,40.5,13.1,40.5,32.2
	c0,19.1-15.1,32.2-40.5,32.2H416.7V341z"></path>
<path d="M1274.7,231.6v-56.8H960.3v56.8h124.1v228.7h66.4V231.6H1274.7z"></path>
<path d="M881.6,174.7h-75.1L663.7,460.2h70.8l30.2-61.2l27.2-54.9h-0.1l19.4-39V305l32.3-65l40.7,82.8l10.5,21.3l56.9,116.1h71.9
	L881.6,174.7z"></path>
<path d="M844.2,576c16,0,28.9-13,28.9-28.9c0-16-13-28.9-28.9-28.9c-16,0-28.9,13-28.9,28.9C815.2,563.1,828.2,576,844.2,576z"></path>
<path d="M844.2,57.9c16,0,28.9-13,28.9-28.9S860.1,0,844.2,0c-16,0-28.9,13-28.9,28.9S828.2,57.9,844.2,57.9z"></path>
</svg></svg></g></svg>