<?xml version="1.0" standalone="no"?>
<!DOCTYPE svg PUBLIC "-//W3C//DTD SVG 20010904//EN"
 "http://www.w3.org/TR/2001/REC-SVG-20010904/DTD/svg10.dtd">
<svg version="1.0" xmlns="http://www.w3.org/2000/svg"
 width="641.000000pt" height="641.000000pt" viewBox="0 0 641.000000 641.000000"
 preserveAspectRatio="xMidYMid meet">
<metadata>
Created by potrace 1.14, written by Peter Selinger 2001-2017
</metadata>
<g transform="translate(0.000000,641.000000) scale(0.100000,-0.100000)"
fill="#000000" stroke="none">
<path d="M2660 4419 c-72 -14 -167 -67 -225 -124 -134 -134 -168 -338 -84
-503 16 -31 29 -63 29 -70 0 -7 -138 -273 -306 -590 -169 -317 -310 -583 -313
-589 -4 -7 -148 248 -329 582 l-323 594 27 53 c54 107 67 205 39 311 -21 81
-50 132 -108 195 -88 92 -201 142 -324 142 l-65 0 107 -206 c58 -113 105 -207
103 -208 -17 -13 -247 -136 -254 -136 -5 0 -54 88 -109 196 -55 107 -104 198
-108 201 -28 18 -100 -117 -118 -220 -33 -200 98 -416 293 -483 25 -8 74 -18
109 -22 l64 -7 34 -65 c19 -36 164 -306 323 -599 220 -407 289 -541 285 -560
-2 -15 -12 -55 -22 -91 -81 -299 255 -561 539 -421 76 37 142 106 183 189 24
49 28 68 27 142 0 64 -6 98 -23 139 l-22 54 285 536 c156 295 300 568 320 607
37 74 49 84 112 84 17 0 57 9 90 20 228 79 353 318 284 543 -20 65 -75 157
-97 165 -7 2 -53 -79 -115 -202 l-103 -206 -133 72 -132 71 104 202 c58 112
102 206 99 209 -9 8 -89 6 -143 -5z m-1609 -929 c28 -16 25 -58 -6 -72 -19 -8
-28 -8 -40 2 -20 17 -19 57 3 69 21 13 20 13 43 1z m1447 -2 c22 -22 14 -57
-13 -64 -35 -9 -55 2 -55 29 0 27 17 47 40 47 9 0 21 -5 28 -12z m-1008 -802
c6 -8 10 -25 8 -38 -2 -19 -9 -23 -38 -23 -29 0 -36 4 -38 23 -4 28 14 52 38
52 10 0 23 -7 30 -14z m592 -11 c8 -19 8 -28 -2 -40 -25 -30 -80 -12 -80 25 0
44 63 55 82 15z m-185 -470 c37 -70 40 -82 29 -100 -7 -11 -19 -31 -27 -45 -8
-13 -20 -30 -27 -38 -6 -7 -17 -22 -22 -33 -9 -16 -22 -19 -88 -19 -47 0 -85
5 -94 13 -9 6 -34 41 -56 76 l-41 65 21 40 c11 23 32 60 45 84 l25 43 96 -3
96 -3 43 -80z"/>
<path d="M3980 4419 c-79 -13 -152 -53 -203 -108 -59 -66 -86 -163 -54 -190
10 -8 222 -12 733 -13 l719 -3 3 -547 2 -548 -350 0 -350 0 0 85 c0 99 -13
128 -65 145 -40 13 -228 11 -268 -2 -41 -15 -57 -55 -57 -148 l0 -80 -162 -1
c-206 -1 -212 -3 -216 -56 -9 -125 137 -250 305 -261 l73 -5 0 -441 c0 -483
-1 -471 59 -495 19 -9 72 -12 156 -9 125 3 127 3 151 31 l24 28 0 282 0 283
62 16 c58 16 63 16 98 -2 20 -10 60 -37 89 -60 l53 -42 -7 -49 c-4 -27 -3 -49
1 -49 4 0 20 12 35 26 25 24 28 25 55 11 16 -8 43 -29 59 -47 25 -26 30 -39
29 -76 l-1 -45 28 27 c27 26 31 27 55 13 15 -8 40 -26 56 -41 24 -22 28 -34
28 -79 l0 -53 28 27 c34 32 58 28 110 -21 27 -26 32 -37 32 -77 0 -26 3 -45 8
-43 4 2 19 10 34 17 25 13 34 11 98 -18 67 -31 194 -60 207 -48 9 9 -22 85
-56 137 -17 25 -63 73 -103 106 l-73 61 2 52 c1 28 -1 51 -4 51 -4 0 -19 -12
-35 -27 -25 -24 -30 -25 -53 -13 -72 38 -102 100 -75 151 16 29 -11 25 -38 -6
-28 -32 -40 -31 -90 4 -43 32 -55 54 -52 99 4 54 1 57 -30 27 -34 -32 -50 -29
-108 20 -29 24 -32 32 -32 83 l0 56 -30 -29 -31 -30 -37 20 c-45 24 -69 81
-58 138 l7 37 373 0 c400 0 419 2 487 52 17 13 41 41 52 63 22 40 22 42 22
757 l0 716 -30 44 c-38 53 -91 83 -170 97 -76 13 -1414 13 -1495 0z m713
-1742 c-9 -15 -192 -257 -204 -271 -5 -6 -9 55 -9 137 l0 147 110 0 c88 0 109
-3 103 -13z"/>
</g>
</svg>
